<svg data-v-fde0c5aa="" xmlns="http://www.w3.org/2000/svg" viewBox="0 0 300 300" class="iconLeft"><!----><defs data-v-fde0c5aa=""><linearGradient data-v-fde0c5aa="" gradientTransform="rotate(25)" id="7faf03b0-5f5d-43e0-be8d-abcb4e768ec3" x1="0%" y1="0%" x2="100%" y2="0%"><stop data-v-fde0c5aa="" offset="0%" stop-color="#0D2175" stop-opacity="1"></stop><stop data-v-fde0c5aa="" offset="100%" stop-color="#1F1EFB" stop-opacity="1"></stop></linearGradient></defs><rect data-v-fde0c5aa="" fill="url(#7faf03b0-5f5d-43e0-be8d-abcb4e768ec3)" x="0" y="0" width="300px" height="300px" class="logo-background-square"></rect><defs data-v-fde0c5aa=""><!----></defs><g data-v-fde0c5aa="" id="f9969ad5-48dc-4a78-8dfd-83aafe337109" fill="#ffffff" transform="matrix(3.974386641755307,0,0,3.974386641755307,114.73617734641492,115.50232463181261)"><path d="M2.35 11.58L1.93 12.85L2.91 13.15L2.91 13.72L-0.10 13.72L-0.10 13.16L0.91 12.84L3.54 5.14L4.54 4.96L7.36 12.84L8.37 13.15L8.37 13.72L4.77 13.72L4.77 13.15L5.66 12.88L5.22 11.58L2.35 11.58ZM4.96 10.86L3.74 7.46L2.59 10.86L4.96 10.86ZM12.47 13.72L8.54 13.72L8.54 13.10L9.69 12.82L9.69 4.75L8.54 4.59L8.54 4.05L10.79 3.50L11.33 3.50L11.33 12.82L12.47 13.10L12.47 13.72ZM16.39 13.86L16.39 13.86Q14.66 13.86 13.89 12.91L13.89 12.91L13.89 12.91Q13.12 11.96 13.12 10.30L13.12 10.30L13.12 10.30Q13.12 8.44 13.96 7.57L13.96 7.57L13.96 7.57Q14.81 6.71 16.25 6.71L16.25 6.71L16.25 6.71Q17.68 6.71 18.34 7.35L18.34 7.35L18.34 7.35Q19.00 7.99 19.00 9.37L19.00 9.37L19.00 9.37Q19.00 9.84 18.96 10.22L18.96 10.22L14.88 10.22L14.88 10.60L14.88 10.60Q14.88 11.82 15.38 12.37L15.38 12.37L15.38 12.37Q15.88 12.92 16.83 12.92L16.83 12.92L16.83 12.92Q17.67 12.92 18.82 12.60L18.82 12.60L18.93 13.15L18.93 13.15Q17.86 13.86 16.39 13.86L16.39 13.86ZM14.91 9.55L17.32 9.41L17.32 9.10L17.32 9.10Q17.32 8.34 17.10 7.96L17.10 7.96L17.10 7.96Q16.88 7.57 16.32 7.57L16.32 7.57L16.32 7.57Q15.55 7.57 15.25 8.04L15.25 8.04L15.25 8.04Q14.95 8.51 14.91 9.55L14.91 9.55ZM26.60 13.03L26.60 13.72L23.23 13.72L23.23 13.05L23.86 12.89L22.71 11.27L21.66 12.88L22.37 13.05L22.37 13.72L19.33 13.72L19.33 13.08L20.37 12.81L22.04 10.35L20.17 7.67L19.46 7.46L19.46 6.83L22.46 6.83L22.46 7.49L21.90 7.60L23.07 9.25L24.09 7.66L23.41 7.49L23.41 6.83L26.24 6.83L26.24 7.50L25.47 7.64L23.73 10.19L25.58 12.81L26.60 13.03ZM28.74 5.73L28.74 5.73Q28.31 5.73 27.99 5.43L27.99 5.43L27.99 5.43Q27.66 5.14 27.66 4.72L27.66 4.72L27.66 4.72Q27.66 4.28 27.99 3.97L27.99 3.97L27.99 3.97Q28.31 3.65 28.74 3.65L28.74 3.65L28.74 3.65Q29.16 3.65 29.47 3.97L29.47 3.97L29.47 3.97Q29.78 4.28 29.78 4.72L29.78 4.72L29.78 4.72Q29.78 5.14 29.47 5.43L29.47 5.43L29.47 5.43Q29.16 5.73 28.74 5.73L28.74 5.73ZM30.70 13.72L26.78 13.72L26.78 13.10L27.93 12.82L27.93 7.94L26.78 7.78L26.78 7.24L29.04 6.71L29.57 6.71L29.57 12.82L30.70 13.10L30.70 13.72ZM34.16 7.56L34.16 7.56Q33.59 7.56 33.26 7.78L33.26 7.78L33.26 7.78Q32.93 8.01 32.93 8.40L32.93 8.40L32.93 8.40Q32.93 8.75 33.10 8.96L33.10 8.96L33.10 8.96Q33.28 9.17 33.70 9.31L33.70 9.31L35.10 9.77L35.10 9.77Q35.88 10.02 36.22 10.46L36.22 10.46L36.22 10.46Q36.55 10.91 36.55 11.69L36.55 11.69L36.55 11.69Q36.55 12.70 35.82 13.28L35.82 13.28L35.82 13.28Q35.08 13.86 33.75 13.86L33.75 13.86L33.75 13.86Q33.24 13.86 32.61 13.77L32.61 13.77L32.61 13.77Q31.98 13.68 31.51 13.51L31.51 13.51L31.68 11.68L32.37 11.68L32.66 12.84L32.66 12.84Q33.17 13.01 33.74 13.01L33.74 13.01L33.74 13.01Q34.43 13.01 34.79 12.75L34.79 12.75L34.79 12.75Q35.15 12.50 35.15 12.01L35.15 12.01L35.15 12.01Q35.15 11.69 34.96 11.52L34.96 11.52L34.96 11.52Q34.76 11.34 34.24 11.16L34.24 11.16L32.94 10.71L32.94 10.71Q32.24 10.46 31.90 10.01L31.90 10.01L31.90 10.01Q31.56 9.56 31.56 8.83L31.56 8.83L31.56 8.83Q31.56 7.83 32.21 7.27L32.21 7.27L32.21 7.27Q32.87 6.71 34.19 6.71L34.19 6.71L34.19 6.71Q34.69 6.71 35.25 6.81L35.25 6.81L35.25 6.81Q35.80 6.92 36.27 7.13L36.27 7.13L36.08 8.79L35.42 8.79L35.13 7.76L35.13 7.76Q34.69 7.56 34.16 7.56L34.16 7.56Z"></path></g><defs data-v-fde0c5aa=""><!----></defs><g data-v-fde0c5aa="" id="3aaae1b8-f42c-42b8-9231-709648398290" stroke="none" fill="#ffffff" transform="matrix(0.6176258365269593,0,0,0.6176258365269593,48.46564288298268,124.53127232399515)"><path d="M79.219 4.735c4.355 0 6.388 2.613 6.388 5.806v27.141c0 3.048-2.323 5.515-5.371 5.804l-58.637 6.533c-4.788.581-5.371 6.82.292 6.82H77.48c6.382 0 6.382 9.435 0 9.435H20.728c-12.775 0-17.562-14.076-7.549-21.48l5.08-3.774L.264 1.688h-8.852c-6.825 0-6.825-10.451 0-10.451H1.718c5.22 0 6.674 2.47 8.268 6.242l3.632 7.257h65.601zM16.664 82.239c0 4.934-3.917 8.997-9.143 8.997-4.934 0-8.997-4.063-8.997-8.997 0-5.079 4.063-9.144 8.997-9.144 5.226.001 9.143 4.065 9.143 9.144zm5.226-59.507h14.655l-3.188-9.87H17.388l4.502 9.87zm19.735 16.982l-3.772-11.756H24.062l5.955 12.918 11.608-1.162zm-3.048-26.851l3.048 9.87h14.368l-2.317-9.87H38.577zM59.77 37.828l-2.901-9.87H43.078l3.626 11.175 13.066-1.305zm17.849-24.965H58.9l2.173 9.87h16.546v-9.87zm.438 69.376c0 4.934-3.918 8.997-8.998 8.997-5.079 0-9.143-4.063-9.143-8.997a9.106 9.106 0 0 1 9.143-9.144c5.08.001 8.998 4.065 8.998 9.144zm-.438-54.281H62.234l2.324 9.144 13.061-1.305v-7.839z"></path></g><!----></svg>